<mxfile host="app.diagrams.net" modified="2024-02-29T16:13:47.276Z" agent="Mozilla/5.0 (Macintosh; Intel Mac OS X 10_15_7) AppleWebKit/537.36 (KHTML, like Gecko) Chrome/122.0.0.0 Safari/537.36" etag="Gxb1qIOcy2y73euLWyLX" version="24.0.0" type="device">
  <diagram name="Page-1" id="-mDk-bJTwAyO5pM_Sczr">
    <mxGraphModel dx="775" dy="683" grid="1" gridSize="10" guides="1" tooltips="1" connect="1" arrows="1" fold="1" page="1" pageScale="1" pageWidth="850" pageHeight="1100" math="0" shadow="0">
      <root>
        <mxCell id="0" />
        <mxCell id="1" parent="0" />
        <mxCell id="iRorZB0AKwyf1h869PoR-1" value="Database" style="verticalLabelPosition=bottom;html=1;verticalAlign=top;align=center;strokeColor=none;fillColor=#00BEF2;shape=mxgraph.azure.sql_database;" vertex="1" parent="1">
          <mxGeometry x="510" y="90" width="80" height="110" as="geometry" />
        </mxCell>
        <mxCell id="iRorZB0AKwyf1h869PoR-2" value="React Frontend" style="verticalLabelPosition=bottom;html=1;verticalAlign=top;align=center;strokeColor=none;fillColor=#00BEF2;shape=mxgraph.azure.laptop;pointerEvents=1;" vertex="1" parent="1">
          <mxGeometry x="90" y="350" width="90" height="70" as="geometry" />
        </mxCell>
        <mxCell id="iRorZB0AKwyf1h869PoR-7" style="edgeStyle=orthogonalEdgeStyle;rounded=0;orthogonalLoop=1;jettySize=auto;html=1;" edge="1" parent="1" source="iRorZB0AKwyf1h869PoR-3" target="iRorZB0AKwyf1h869PoR-6">
          <mxGeometry relative="1" as="geometry">
            <Array as="points">
              <mxPoint x="315" y="430" />
              <mxPoint x="530" y="430" />
              <mxPoint x="530" y="373" />
            </Array>
          </mxGeometry>
        </mxCell>
        <mxCell id="iRorZB0AKwyf1h869PoR-3" value="Frontend api" style="sketch=0;pointerEvents=1;shadow=0;dashed=0;html=1;strokeColor=none;labelPosition=center;verticalLabelPosition=bottom;verticalAlign=top;outlineConnect=0;align=center;shape=mxgraph.office.servers.physical_host;fillColor=#2072B8;" vertex="1" parent="1">
          <mxGeometry x="290" y="344.5" width="50" height="81" as="geometry" />
        </mxCell>
        <mxCell id="iRorZB0AKwyf1h869PoR-4" style="edgeStyle=orthogonalEdgeStyle;rounded=0;orthogonalLoop=1;jettySize=auto;html=1;entryX=1.03;entryY=0.503;entryDx=0;entryDy=0;entryPerimeter=0;strokeColor=default;shape=link;" edge="1" parent="1" source="iRorZB0AKwyf1h869PoR-3" target="iRorZB0AKwyf1h869PoR-2">
          <mxGeometry relative="1" as="geometry" />
        </mxCell>
        <mxCell id="iRorZB0AKwyf1h869PoR-5" style="edgeStyle=orthogonalEdgeStyle;rounded=0;orthogonalLoop=1;jettySize=auto;html=1;entryX=0;entryY=0.5;entryDx=0;entryDy=0;entryPerimeter=0;shape=link;" edge="1" parent="1" source="iRorZB0AKwyf1h869PoR-3" target="iRorZB0AKwyf1h869PoR-1">
          <mxGeometry relative="1" as="geometry">
            <Array as="points">
              <mxPoint x="470" y="385" />
              <mxPoint x="470" y="145" />
            </Array>
          </mxGeometry>
        </mxCell>
        <mxCell id="iRorZB0AKwyf1h869PoR-8" style="edgeStyle=orthogonalEdgeStyle;rounded=0;orthogonalLoop=1;jettySize=auto;html=1;" edge="1" parent="1" source="iRorZB0AKwyf1h869PoR-6" target="iRorZB0AKwyf1h869PoR-1">
          <mxGeometry relative="1" as="geometry" />
        </mxCell>
        <mxCell id="iRorZB0AKwyf1h869PoR-6" value="Voting Service" style="sketch=0;pointerEvents=1;shadow=0;dashed=0;html=1;strokeColor=none;labelPosition=center;verticalLabelPosition=bottom;verticalAlign=top;outlineConnect=0;align=center;shape=mxgraph.office.servers.physical_host;fillColor=#2072B8;" vertex="1" parent="1">
          <mxGeometry x="570" y="330" width="43" height="85" as="geometry" />
        </mxCell>
        <mxCell id="iRorZB0AKwyf1h869PoR-9" value="Blockchain service?" style="image;aspect=fixed;html=1;points=[];align=center;fontSize=12;image=img/lib/azure2/blockchain/Azure_Blockchain_Service.svg;" vertex="1" parent="1">
          <mxGeometry x="318" y="80" width="107" height="107" as="geometry" />
        </mxCell>
        <mxCell id="iRorZB0AKwyf1h869PoR-10" style="edgeStyle=orthogonalEdgeStyle;rounded=0;orthogonalLoop=1;jettySize=auto;html=1;entryX=0.484;entryY=0.983;entryDx=0;entryDy=0;entryPerimeter=0;" edge="1" parent="1" source="iRorZB0AKwyf1h869PoR-6" target="iRorZB0AKwyf1h869PoR-9">
          <mxGeometry relative="1" as="geometry">
            <Array as="points">
              <mxPoint x="370" y="330" />
            </Array>
          </mxGeometry>
        </mxCell>
        <mxCell id="iRorZB0AKwyf1h869PoR-11" style="edgeStyle=orthogonalEdgeStyle;rounded=0;orthogonalLoop=1;jettySize=auto;html=1;entryX=-0.007;entryY=0.516;entryDx=0;entryDy=0;entryPerimeter=0;" edge="1" parent="1" source="iRorZB0AKwyf1h869PoR-2" target="iRorZB0AKwyf1h869PoR-9">
          <mxGeometry relative="1" as="geometry">
            <Array as="points">
              <mxPoint x="135" y="310" />
              <mxPoint x="249" y="310" />
              <mxPoint x="249" y="135" />
            </Array>
          </mxGeometry>
        </mxCell>
        <mxCell id="iRorZB0AKwyf1h869PoR-13" style="edgeStyle=orthogonalEdgeStyle;rounded=0;orthogonalLoop=1;jettySize=auto;html=1;" edge="1" parent="1" source="iRorZB0AKwyf1h869PoR-12" target="iRorZB0AKwyf1h869PoR-6">
          <mxGeometry relative="1" as="geometry" />
        </mxCell>
        <mxCell id="iRorZB0AKwyf1h869PoR-14" style="edgeStyle=orthogonalEdgeStyle;rounded=0;orthogonalLoop=1;jettySize=auto;html=1;" edge="1" parent="1" source="iRorZB0AKwyf1h869PoR-12" target="iRorZB0AKwyf1h869PoR-3">
          <mxGeometry relative="1" as="geometry" />
        </mxCell>
        <mxCell id="iRorZB0AKwyf1h869PoR-15" style="edgeStyle=orthogonalEdgeStyle;rounded=0;orthogonalLoop=1;jettySize=auto;html=1;" edge="1" parent="1" source="iRorZB0AKwyf1h869PoR-12" target="iRorZB0AKwyf1h869PoR-2">
          <mxGeometry relative="1" as="geometry" />
        </mxCell>
        <mxCell id="iRorZB0AKwyf1h869PoR-12" value="Public Key Infrastructure" style="sketch=0;outlineConnect=0;fontColor=#232F3E;gradientColor=none;fillColor=#DD344C;strokeColor=none;dashed=0;verticalLabelPosition=bottom;verticalAlign=top;align=center;html=1;fontSize=12;fontStyle=0;aspect=fixed;pointerEvents=1;shape=mxgraph.aws4.key_management_service_external_key_store;" vertex="1" parent="1">
          <mxGeometry x="340" y="540" width="78" height="78" as="geometry" />
        </mxCell>
      </root>
    </mxGraphModel>
  </diagram>
</mxfile>
